<svg xmlns="http://www.w3.org/2000/svg" width="200" zoomAndPan="magnify"
     viewBox="103 137 140 140" height="200" preserveAspectRatio="xMidYMid meet" version="1.0">
    <defs>
        <clipPath id="1a91eb2a7c">
            <path d="M 153.605469 244.441406 L 195.929688 244.441406 L 195.929688 256.894531 L 153.605469 256.894531 Z M 153.605469 244.441406 "
                  clip-rule="nonzero"/>
        </clipPath>
        <clipPath id="c494919f73">
            <path d="M 159.832031 244.441406 L 189.691406 244.441406 C 193.128906 244.441406 195.917969 247.230469 195.917969 250.667969 C 195.917969 254.109375 193.128906 256.894531 189.691406 256.894531 L 159.832031 256.894531 C 156.394531 256.894531 153.605469 254.109375 153.605469 250.667969 C 153.605469 247.230469 156.394531 244.441406 159.832031 244.441406 Z M 159.832031 244.441406 "
                  clip-rule="nonzero"/>
        </clipPath>
        <clipPath id="e48d0e612c">
            <path d="M 169 231 L 183 231 L 183 273 L 169 273 Z M 169 231 " clip-rule="nonzero"/>
        </clipPath>
        <clipPath id="1df8da8241">
            <path d="M 182.640625 231.335938 L 181.953125 272.644531 L 169.394531 272.4375 L 170.082031 231.128906 Z M 182.640625 231.335938 "
                  clip-rule="nonzero"/>
        </clipPath>
        <clipPath id="ed09abd59e">
            <path d="M 182.535156 237.617188 L 182.058594 266.34375 C 182.03125 268.011719 181.34375 269.597656 180.144531 270.753906 C 178.949219 271.914062 177.339844 272.546875 175.675781 272.519531 C 174.007812 272.492188 172.421875 271.804688 171.265625 270.605469 C 170.105469 269.410156 169.472656 267.800781 169.5 266.136719 L 169.976562 237.40625 C 170.003906 235.742188 170.691406 234.15625 171.890625 232.996094 C 173.085938 231.839844 174.695312 231.203125 176.363281 231.230469 C 178.027344 231.257812 179.613281 231.949219 180.769531 233.144531 C 181.929688 234.34375 182.566406 235.949219 182.535156 237.617188 Z M 182.535156 237.617188 "
                  clip-rule="nonzero"/>
        </clipPath>
        <clipPath id="c677b87c84">
            <path d="M 106 143 L 119 143 L 119 179 L 106 179 Z M 106 143 " clip-rule="nonzero"/>
        </clipPath>
        <clipPath id="af555352fb">
            <path d="M 106.191406 177.878906 L 109.765625 142.777344 L 119.46875 143.765625 L 115.894531 178.867188 Z M 106.191406 177.878906 "
                  clip-rule="nonzero"/>
        </clipPath>
        <clipPath id="07011a15ec">
            <path d="M 106.683594 173.027344 L 109.269531 147.648438 C 109.542969 144.96875 111.933594 143.015625 114.613281 143.289062 C 117.292969 143.5625 119.246094 145.957031 118.972656 148.636719 L 116.386719 174.015625 C 116.113281 176.695312 113.722656 178.644531 111.042969 178.371094 C 108.363281 178.101562 106.410156 175.707031 106.683594 173.027344 Z M 106.683594 173.027344 "
                  clip-rule="nonzero"/>
        </clipPath>
        <clipPath id="309468dc4f">
            <path d="M 114 148 L 153 148 L 153 191 L 114 191 Z M 114 148 " clip-rule="nonzero"/>
        </clipPath>
        <clipPath id="7c4f32c798">
            <path d="M 145.164062 193.363281 L 111.484375 153.941406 L 121.300781 145.554688 L 154.980469 184.976562 Z M 145.164062 193.363281 "
                  clip-rule="nonzero"/>
        </clipPath>
        <clipPath id="84e5d198c6">
            <path d="M 140.96875 188.457031 L 115.695312 158.871094 C 113.378906 156.160156 113.699219 152.082031 116.410156 149.765625 C 119.121094 147.453125 123.195312 147.769531 125.511719 150.480469 L 150.789062 180.066406 C 153.105469 182.777344 152.785156 186.855469 150.074219 189.171875 C 147.363281 191.484375 143.285156 191.167969 140.96875 188.457031 Z M 140.96875 188.457031 "
                  clip-rule="nonzero"/>
        </clipPath>
        <clipPath id="0ce9dabcb7">
            <path d="M 115 154 L 156 154 L 156 192 L 115 192 Z M 115 154 " clip-rule="nonzero"/>
        </clipPath>
        <clipPath id="401f4a46eb">
            <path d="M 157.785156 161.257812 L 121.246094 193.539062 L 113.414062 184.675781 L 149.953125 152.390625 Z M 157.785156 161.257812 "
                  clip-rule="nonzero"/>
        </clipPath>
        <clipPath id="b9166bee08">
            <path d="M 153.351562 165.175781 L 125.710938 189.597656 C 123.261719 191.761719 119.523438 191.527344 117.359375 189.082031 C 115.195312 186.632812 115.429688 182.894531 117.875 180.730469 L 145.519531 156.308594 C 147.96875 154.144531 151.707031 154.375 153.867188 156.824219 C 156.03125 159.273438 155.800781 163.011719 153.351562 165.175781 Z M 153.351562 165.175781 "
                  clip-rule="nonzero"/>
        </clipPath>
        <clipPath id="dbc44ae062">
            <path d="M 109 141 L 146 141 L 146 153 L 109 153 Z M 109 141 " clip-rule="nonzero"/>
        </clipPath>
        <clipPath id="8b97c38c8b">
            <path d="M 110.113281 141.117188 L 145.359375 142.699219 L 144.921875 152.441406 L 109.675781 150.859375 Z M 110.113281 141.117188 "
                  clip-rule="nonzero"/>
        </clipPath>
        <clipPath id="987c253de6">
            <path d="M 114.984375 141.335938 L 140.46875 142.476562 C 143.160156 142.597656 145.242188 144.878906 145.121094 147.570312 C 145.003906 150.257812 142.722656 152.34375 140.03125 152.222656 L 114.546875 151.078125 C 111.855469 150.957031 109.773438 148.679688 109.894531 145.988281 C 110.015625 143.296875 112.292969 141.214844 114.984375 141.335938 Z M 114.984375 141.335938 "
                  clip-rule="nonzero"/>
        </clipPath>
        <clipPath id="b45d9caf19">
            <path d="M 192 143 L 240 143 L 240 157 L 192 157 Z M 192 143 " clip-rule="nonzero"/>
        </clipPath>
        <clipPath id="da2ed08835">
            <path d="M 192.351562 143.1875 L 239.140625 143.964844 L 238.925781 156.902344 L 192.136719 156.121094 Z M 192.351562 143.1875 "
                  clip-rule="nonzero"/>
        </clipPath>
        <clipPath id="d8ca14864a">
            <path d="M 198.820312 143.296875 L 232.648438 143.859375 C 236.222656 143.917969 239.070312 146.863281 239.007812 150.433594 C 238.949219 154.003906 236.007812 156.851562 232.433594 156.792969 L 198.605469 156.230469 C 195.03125 156.171875 192.183594 153.226562 192.246094 149.65625 C 192.304688 146.082031 195.246094 143.234375 198.820312 143.296875 Z M 198.820312 143.296875 "
                  clip-rule="nonzero"/>
        </clipPath>
        <clipPath id="e1e5330554">
            <path d="M 224 143 L 240 143 L 240 191 L 224 191 Z M 224 143 " clip-rule="nonzero"/>
        </clipPath>
        <clipPath id="e427116f7f">
            <path d="M 224.523438 190.660156 L 225.304688 143.714844 L 239.121094 143.945312 L 238.339844 190.890625 Z M 224.523438 190.660156 "
                  clip-rule="nonzero"/>
        </clipPath>
        <clipPath id="fbc541e7fd">
            <path d="M 224.640625 183.753906 L 225.191406 150.632812 C 225.253906 146.820312 228.398438 143.777344 232.214844 143.84375 C 236.027344 143.90625 239.066406 147.050781 239.003906 150.863281 L 238.453125 183.984375 C 238.390625 187.796875 235.246094 190.839844 231.433594 190.777344 C 227.617188 190.710938 224.578125 187.570312 224.640625 183.753906 Z M 224.640625 183.753906 "
                  clip-rule="nonzero"/>
        </clipPath>
        <clipPath id="414db1580e">
            <path d="M 194 151 L 232 151 L 232 188 L 194 188 Z M 194 151 " clip-rule="nonzero"/>
        </clipPath>
        <clipPath id="ba03cbbe6b">
            <path d="M 191.734375 180.265625 L 224.679688 148.402344 L 234.367188 158.417969 L 201.425781 190.285156 Z M 191.734375 180.265625 "
                  clip-rule="nonzero"/>
        </clipPath>
        <clipPath id="780063719e">
            <path d="M 196.742188 175.421875 L 219.65625 153.261719 C 220.984375 151.976562 222.769531 151.273438 224.617188 151.300781 C 226.464844 151.332031 228.222656 152.097656 229.507812 153.425781 C 230.792969 154.753906 231.496094 156.539062 231.464844 158.386719 C 231.4375 160.234375 230.671875 161.992188 229.34375 163.277344 L 206.433594 185.4375 C 205.105469 186.722656 203.320312 187.429688 201.472656 187.398438 C 199.625 187.367188 197.863281 186.601562 196.578125 185.273438 C 195.296875 183.945312 194.589844 182.164062 194.621094 180.316406 C 194.652344 178.46875 195.414062 176.707031 196.742188 175.421875 Z M 196.742188 175.421875 "
                  clip-rule="nonzero"/>
        </clipPath>
        <clipPath id="09177f1b91">
            <path d="M 141 167 L 209 167 L 209 235 L 141 235 Z M 141 167 " clip-rule="nonzero"/>
        </clipPath>
        <clipPath id="2c7dea0a1e">
            <path d="M 141.65625 167.042969 L 208.996094 168.164062 L 207.875 235.5 L 140.539062 234.378906 Z M 141.65625 167.042969 "
                  clip-rule="nonzero"/>
        </clipPath>
        <clipPath id="a9f9b580c7">
            <path d="M 175.324219 167.605469 C 156.730469 167.292969 141.40625 182.117188 141.097656 200.710938 C 140.789062 219.304688 155.609375 234.628906 174.207031 234.941406 C 192.800781 235.25 208.125 220.425781 208.433594 201.832031 C 208.742188 183.238281 193.921875 167.914062 175.324219 167.605469 Z M 175.324219 167.605469 "
                  clip-rule="nonzero"/>
        </clipPath>
        <clipPath id="202682bfd2">
            <path d="M 153 179 L 197 179 L 197 223 L 153 223 Z M 153 179 " clip-rule="nonzero"/>
        </clipPath>
        <clipPath id="63ae01a8ce">
            <path d="M 149.855469 183.6875 L 192.347656 176.359375 L 199.675781 218.851562 L 157.183594 226.179688 Z M 149.855469 183.6875 "
                  clip-rule="nonzero"/>
        </clipPath>
        <clipPath id="695367c494">
            <path d="M 171.101562 180.023438 C 159.367188 182.046875 151.496094 193.199219 153.519531 204.933594 C 155.542969 216.667969 166.695312 224.542969 178.429688 222.515625 C 190.164062 220.492188 198.035156 209.339844 196.011719 197.605469 C 193.988281 185.871094 182.835938 178 171.101562 180.023438 Z M 171.101562 180.023438 "
                  clip-rule="nonzero"/>
        </clipPath>
    </defs>
    <g clip-path="url(#1a91eb2a7c)">
        <g clip-path="url(#c494919f73)">
            <path fill="#7864a5"
                  d="M 153.605469 244.441406 L 195.929688 244.441406 L 195.929688 256.894531 L 153.605469 256.894531 Z M 153.605469 244.441406 "
                  fill-opacity="1" fill-rule="nonzero"/>
        </g>
    </g>
    <g clip-path="url(#e48d0e612c)">
        <g clip-path="url(#1df8da8241)">
            <g clip-path="url(#ed09abd59e)">
                <path fill="#7864a5"
                      d="M 182.640625 231.335938 L 181.953125 272.644531 L 169.394531 272.4375 L 170.082031 231.128906 Z M 182.640625 231.335938 "
                      fill-opacity="1" fill-rule="nonzero"/>
            </g>
        </g>
    </g>
    <g clip-path="url(#c677b87c84)">
        <g clip-path="url(#af555352fb)">
            <g clip-path="url(#07011a15ec)">
                <path fill="#7864a5"
                      d="M 106.191406 177.878906 L 109.765625 142.777344 L 119.46875 143.765625 L 115.894531 178.867188 Z M 106.191406 177.878906 "
                      fill-opacity="1" fill-rule="nonzero"/>
            </g>
        </g>
    </g>
    <g clip-path="url(#309468dc4f)">
        <g clip-path="url(#7c4f32c798)">
            <g clip-path="url(#84e5d198c6)">
                <path fill="#7864a5"
                      d="M 145.164062 193.363281 L 111.515625 153.980469 L 121.335938 145.59375 L 154.980469 184.976562 Z M 145.164062 193.363281 "
                      fill-opacity="1" fill-rule="nonzero"/>
            </g>
        </g>
    </g>
    <g clip-path="url(#0ce9dabcb7)">
        <g clip-path="url(#401f4a46eb)">
            <g clip-path="url(#b9166bee08)">
                <path fill="#7864a5"
                      d="M 157.785156 161.257812 L 121.28125 193.507812 L 113.449219 184.644531 L 149.953125 152.390625 Z M 157.785156 161.257812 "
                      fill-opacity="1" fill-rule="nonzero"/>
            </g>
        </g>
    </g>
    <g clip-path="url(#dbc44ae062)">
        <g clip-path="url(#8b97c38c8b)">
            <g clip-path="url(#987c253de6)">
                <path fill="#7864a5"
                      d="M 110.113281 141.117188 L 145.359375 142.699219 L 144.921875 152.441406 L 109.675781 150.859375 Z M 110.113281 141.117188 "
                      fill-opacity="1" fill-rule="nonzero"/>
            </g>
        </g>
    </g>
    <g clip-path="url(#b45d9caf19)">
        <g clip-path="url(#da2ed08835)">
            <g clip-path="url(#d8ca14864a)">
                <path fill="#7864a5"
                      d="M 192.351562 143.1875 L 239.140625 143.964844 L 238.925781 156.902344 L 192.136719 156.121094 Z M 192.351562 143.1875 "
                      fill-opacity="1" fill-rule="nonzero"/>
            </g>
        </g>
    </g>
    <g clip-path="url(#e1e5330554)">
        <g clip-path="url(#e427116f7f)">
            <g clip-path="url(#fbc541e7fd)">
                <path fill="#7864a5"
                      d="M 224.523438 190.660156 L 225.304688 143.714844 L 239.121094 143.945312 L 238.339844 190.890625 Z M 224.523438 190.660156 "
                      fill-opacity="1" fill-rule="nonzero"/>
            </g>
        </g>
    </g>
    <g clip-path="url(#414db1580e)">
        <g clip-path="url(#ba03cbbe6b)">
            <g clip-path="url(#780063719e)">
                <path fill="#7864a5"
                      d="M 191.734375 180.265625 L 224.679688 148.402344 L 234.367188 158.417969 L 201.425781 190.285156 Z M 191.734375 180.265625 "
                      fill-opacity="1" fill-rule="nonzero"/>
            </g>
        </g>
    </g>
    <g clip-path="url(#09177f1b91)">
        <g clip-path="url(#2c7dea0a1e)">
            <g clip-path="url(#a9f9b580c7)">
                <path fill="#7864a5"
                      d="M 141.65625 167.042969 L 208.996094 168.164062 L 207.875 235.5 L 140.539062 234.378906 Z M 141.65625 167.042969 "
                      fill-opacity="1" fill-rule="nonzero"/>
            </g>
        </g>
    </g>
    <g clip-path="url(#202682bfd2)">
        <g clip-path="url(#63ae01a8ce)">
            <g clip-path="url(#695367c494)">
                <path fill="#ffffff"
                      d="M 149.855469 183.6875 L 192.347656 176.359375 L 199.675781 218.851562 L 157.183594 226.179688 Z M 149.855469 183.6875 "
                      fill-opacity="1" fill-rule="nonzero"/>
            </g>
        </g>
    </g>
</svg>