<svg xmlns="http://www.w3.org/2000/svg" width="200" zoomAndPan="magnify"
     viewBox="143 143 90 90" height="200" preserveAspectRatio="xMidYMid meet" version="1.0">
    <defs>
        <clipPath id="966c626075">
            <path d="M 143 173 L 203 173 L 203 232 L 143 232 Z M 143 173 " clip-rule="nonzero"/>
        </clipPath>
        <clipPath id="11871d9dca">
            <path d="M 143.804688 173.042969 L 202.375 173.039062 L 202.375 231.605469 L 143.808594 231.609375 Z M 143.804688 173.042969 "
                  clip-rule="nonzero"/>
        </clipPath>
        <clipPath id="b098b540c0">
            <path d="M 173.089844 173.042969 C 156.917969 173.042969 143.804688 186.152344 143.808594 202.328125 C 143.808594 218.5 156.917969 231.609375 173.09375 231.609375 C 189.265625 231.609375 202.375 218.496094 202.375 202.324219 C 202.375 186.148438 189.261719 173.039062 173.089844 173.042969 Z M 173.089844 173.042969 "
                  clip-rule="nonzero"/>
        </clipPath>
        <clipPath id="812b9df35d">
            <path d="M 154 183 L 192 183 L 192 222 L 154 222 Z M 154 183 " clip-rule="nonzero"/>
        </clipPath>
        <clipPath id="e45f3c20cf">
            <path d="M 151.175781 187.398438 L 188.019531 180.40625 L 195.007812 217.25 L 158.164062 224.238281 Z M 151.175781 187.398438 "
                  clip-rule="nonzero"/>
        </clipPath>
        <clipPath id="d83f193b8a">
            <path d="M 169.597656 183.902344 C 159.425781 185.832031 152.742188 195.644531 154.671875 205.816406 C 156.601562 215.992188 166.414062 222.675781 176.585938 220.746094 C 186.761719 218.816406 193.441406 209.003906 191.511719 198.828125 C 189.582031 188.65625 179.773438 181.972656 169.597656 183.902344 Z M 169.597656 183.902344 "
                  clip-rule="nonzero"/>
        </clipPath>
        <clipPath id="1a0453a221">
            <path d="M 185 149 L 224 149 L 224 187 L 185 187 Z M 185 149 " clip-rule="nonzero"/>
        </clipPath>
        <clipPath id="41ab68bc9c">
            <path d="M 183.441406 180.671875 L 217.316406 146.796875 L 225.882812 155.363281 L 192.011719 189.242188 Z M 183.441406 180.671875 "
                  clip-rule="nonzero"/>
        </clipPath>
        <clipPath id="a4b1e6ac40">
            <path d="M 187.726562 176.386719 L 213.019531 151.09375 C 214.152344 149.957031 215.695312 149.316406 217.300781 149.316406 C 218.910156 149.316406 220.449219 149.957031 221.585938 151.09375 C 222.722656 152.230469 223.363281 153.769531 223.363281 155.378906 C 223.363281 156.984375 222.722656 158.527344 221.585938 159.660156 L 196.292969 184.957031 C 195.160156 186.09375 193.617188 186.734375 192.011719 186.734375 C 190.402344 186.734375 188.863281 186.09375 187.726562 184.957031 C 186.589844 183.820312 185.949219 182.28125 185.949219 180.671875 C 185.949219 179.066406 186.589844 177.523438 187.726562 176.386719 Z M 187.726562 176.386719 "
                  clip-rule="nonzero"/>
        </clipPath>
        <clipPath id="bee39188e3">
            <path d="M 181 153 L 220 153 L 220 192 L 181 192 Z M 181 153 " clip-rule="nonzero"/>
        </clipPath>
        <clipPath id="94235dbb59">
            <path d="M 213.660156 193.523438 L 178.613281 159.625 L 186.839844 151.121094 L 221.886719 185.015625 Z M 213.660156 193.523438 "
                  clip-rule="nonzero"/>
        </clipPath>
        <clipPath id="8d6f8c5df9">
            <path d="M 209.410156 189.410156 L 182.894531 163.765625 C 180.546875 161.496094 180.484375 157.75 182.753906 155.402344 C 185.027344 153.054688 188.773438 152.992188 191.121094 155.261719 L 217.632812 180.90625 C 219.984375 183.175781 220.046875 186.921875 217.773438 189.269531 C 215.503906 191.617188 211.757812 191.679688 209.410156 189.410156 Z M 209.410156 189.410156 "
                  clip-rule="nonzero"/>
        </clipPath>
        <clipPath id="a803435c3a">
            <path d="M 192 143 L 229 143 L 229 154 L 192 154 Z M 192 143 " clip-rule="nonzero"/>
        </clipPath>
        <clipPath id="d521861cf1">
            <path d="M 193.046875 143.390625 L 228.320312 144.203125 L 228.097656 153.953125 L 192.824219 153.140625 Z M 193.046875 143.390625 "
                  clip-rule="nonzero"/>
        </clipPath>
        <clipPath id="9612717e35">
            <path d="M 197.925781 143.5 L 223.429688 144.089844 C 226.121094 144.152344 228.253906 146.386719 228.191406 149.078125 C 228.128906 151.769531 225.894531 153.902344 223.203125 153.839844 L 197.699219 153.253906 C 195.007812 153.191406 192.875 150.957031 192.9375 148.265625 C 193 145.574219 195.230469 143.441406 197.925781 143.5 Z M 197.925781 143.5 "
                  clip-rule="nonzero"/>
        </clipPath>
        <clipPath id="d05427388f">
            <path d="M 220 144 L 232 144 L 232 180 L 220 180 Z M 220 144 " clip-rule="nonzero"/>
        </clipPath>
        <clipPath id="132c8db3f6">
            <path d="M 230.007812 144.417969 L 231.191406 179.679688 L 221.441406 180.007812 L 220.257812 144.746094 Z M 230.007812 144.417969 "
                  clip-rule="nonzero"/>
        </clipPath>
        <clipPath id="d499a8fd16">
            <path d="M 230.167969 149.292969 L 231.027344 174.789062 C 231.117188 177.480469 229.007812 179.738281 226.316406 179.828125 C 223.625 179.917969 221.371094 177.808594 221.277344 175.117188 L 220.421875 149.621094 C 220.332031 146.929688 222.441406 144.671875 225.132812 144.582031 C 227.824219 144.492188 230.078125 146.601562 230.167969 149.292969 Z M 230.167969 149.292969 "
                  clip-rule="nonzero"/>
        </clipPath>
    </defs>
    <g clip-path="url(#966c626075)">
        <g clip-path="url(#11871d9dca)">
            <g clip-path="url(#b098b540c0)">
                <path fill="#6ea53c"
                      d="M 143.804688 173.042969 L 202.375 173.039062 L 202.375 231.605469 L 143.808594 231.609375 Z M 143.804688 173.042969 "
                      fill-opacity="1" fill-rule="nonzero"/>
            </g>
        </g>
    </g>
    <g clip-path="url(#812b9df35d)">
        <g clip-path="url(#e45f3c20cf)">
            <g clip-path="url(#d83f193b8a)">
                <path fill="#ffffff"
                      d="M 151.175781 187.398438 L 188.019531 180.40625 L 195.007812 217.25 L 158.164062 224.238281 Z M 151.175781 187.398438 "
                      fill-opacity="1" fill-rule="nonzero"/>
            </g>
        </g>
    </g>
    <g clip-path="url(#1a0453a221)">
        <g clip-path="url(#41ab68bc9c)">
            <g clip-path="url(#a4b1e6ac40)">
                <path fill="#6ea53c"
                      d="M 183.441406 180.671875 L 217.316406 146.796875 L 225.882812 155.363281 L 192.011719 189.242188 Z M 183.441406 180.671875 "
                      fill-opacity="1" fill-rule="nonzero"/>
            </g>
        </g>
    </g>
    <g clip-path="url(#bee39188e3)">
        <g clip-path="url(#94235dbb59)">
            <g clip-path="url(#8d6f8c5df9)">
                <path fill="#6ea53c"
                      d="M 213.660156 193.523438 L 178.648438 159.65625 L 186.871094 151.152344 L 221.886719 185.015625 Z M 213.660156 193.523438 "
                      fill-opacity="1" fill-rule="nonzero"/>
            </g>
        </g>
    </g>
    <g clip-path="url(#a803435c3a)">
        <g clip-path="url(#d521861cf1)">
            <g clip-path="url(#9612717e35)">
                <path fill="#6ea53c"
                      d="M 193.046875 143.390625 L 228.320312 144.203125 L 228.097656 153.953125 L 192.824219 153.140625 Z M 193.046875 143.390625 "
                      fill-opacity="1" fill-rule="nonzero"/>
            </g>
        </g>
    </g>
    <g clip-path="url(#d05427388f)">
        <g clip-path="url(#132c8db3f6)">
            <g clip-path="url(#d499a8fd16)">
                <path fill="#6ea53c"
                      d="M 230.007812 144.417969 L 231.191406 179.679688 L 221.441406 180.007812 L 220.257812 144.746094 Z M 230.007812 144.417969 "
                      fill-opacity="1" fill-rule="nonzero"/>
            </g>
        </g>
    </g>
</svg>