<svg xmlns="http://www.w3.org/2000/svg" width="200" zoomAndPan="magnify"
     viewBox="137 137 100 100" height="200" preserveAspectRatio="xMidYMid meet" version="1.0">
    <defs>
        <clipPath id="cd96fb4810">
            <path d="M 187 139 L 235 139 L 235 154 L 187 154 Z M 187 139 " clip-rule="nonzero"/>
        </clipPath>
        <clipPath id="04eacaa898">
            <path d="M 187.695312 139.5 L 234.484375 140.277344 L 234.269531 153.214844 L 187.480469 152.433594 Z M 187.695312 139.5 "
                  clip-rule="nonzero"/>
        </clipPath>
        <clipPath id="6cde852a2e">
            <path d="M 194.164062 139.609375 L 227.996094 140.171875 C 231.566406 140.230469 234.414062 143.171875 234.355469 146.746094 C 234.296875 150.316406 231.351562 153.164062 227.78125 153.105469 L 193.949219 152.542969 C 190.378906 152.484375 187.53125 149.539062 187.589844 145.96875 C 187.648438 142.394531 190.59375 139.546875 194.164062 139.609375 Z M 194.164062 139.609375 "
                  clip-rule="nonzero"/>
        </clipPath>
        <clipPath id="c637f423d1">
            <path d="M 219 140 L 235 140 L 235 188 L 219 188 Z M 219 140 " clip-rule="nonzero"/>
        </clipPath>
        <clipPath id="fe15a3cf35">
            <path d="M 219.871094 186.972656 L 220.652344 140.027344 L 234.464844 140.257812 L 233.683594 187.203125 Z M 219.871094 186.972656 "
                  clip-rule="nonzero"/>
        </clipPath>
        <clipPath id="f054b1738a">
            <path d="M 219.984375 180.066406 L 220.535156 146.945312 C 220.601562 143.132812 223.742188 140.089844 227.558594 140.15625 C 231.371094 140.21875 234.414062 143.363281 234.351562 147.175781 L 233.800781 180.296875 C 233.734375 184.109375 230.589844 187.152344 226.777344 187.089844 C 222.960938 187.023438 219.921875 183.878906 219.984375 180.066406 Z M 219.984375 180.066406 "
                  clip-rule="nonzero"/>
        </clipPath>
        <clipPath id="17c02a3ed8">
            <path d="M 189 147 L 227 147 L 227 184 L 189 184 Z M 189 147 " clip-rule="nonzero"/>
        </clipPath>
        <clipPath id="cb920dd858">
            <path d="M 187.082031 176.578125 L 220.023438 144.710938 L 229.714844 154.730469 L 196.769531 186.59375 Z M 187.082031 176.578125 "
                  clip-rule="nonzero"/>
        </clipPath>
        <clipPath id="f4102ba72e">
            <path d="M 192.089844 171.734375 L 215 149.574219 C 216.328125 148.289062 218.113281 147.582031 219.960938 147.613281 C 221.808594 147.644531 223.566406 148.410156 224.851562 149.738281 C 226.136719 151.066406 226.84375 152.847656 226.8125 154.699219 C 226.78125 156.546875 226.015625 158.304688 224.6875 159.589844 L 201.777344 181.75 C 200.449219 183.035156 198.664062 183.742188 196.816406 183.710938 C 194.96875 183.679688 193.210938 182.914062 191.925781 181.585938 C 190.640625 180.257812 189.9375 178.476562 189.964844 176.628906 C 189.996094 174.78125 190.761719 173.019531 192.089844 171.734375 Z M 192.089844 171.734375 "
                  clip-rule="nonzero"/>
        </clipPath>
        <clipPath id="09521dc116">
            <path d="M 141 167 L 209 167 L 209 235 L 141 235 Z M 141 167 " clip-rule="nonzero"/>
        </clipPath>
        <clipPath id="e2797f95f4">
            <path d="M 141.65625 167.042969 L 208.996094 168.164062 L 207.875 235.5 L 140.539062 234.378906 Z M 141.65625 167.042969 "
                  clip-rule="nonzero"/>
        </clipPath>
        <clipPath id="d4ecdf130f">
            <path d="M 175.324219 167.601562 C 156.730469 167.292969 141.40625 182.117188 141.097656 200.710938 C 140.789062 219.304688 155.609375 234.628906 174.207031 234.941406 C 192.800781 235.25 208.125 220.425781 208.433594 201.832031 C 208.742188 183.238281 193.921875 167.914062 175.324219 167.601562 Z M 175.324219 167.601562 "
                  clip-rule="nonzero"/>
        </clipPath>
        <clipPath id="5112c03b50">
            <path d="M 153 179 L 197 179 L 197 223 L 153 223 Z M 153 179 " clip-rule="nonzero"/>
        </clipPath>
        <clipPath id="04cb41687b">
            <path d="M 149.855469 183.6875 L 192.347656 176.359375 L 199.675781 218.851562 L 157.183594 226.179688 Z M 149.855469 183.6875 "
                  clip-rule="nonzero"/>
        </clipPath>
        <clipPath id="69f1bdc01b">
            <path d="M 171.101562 180.023438 C 159.367188 182.046875 151.496094 193.199219 153.519531 204.933594 C 155.542969 216.667969 166.695312 224.539062 178.429688 222.515625 C 190.164062 220.492188 198.035156 209.339844 196.011719 197.605469 C 193.988281 185.871094 182.835938 178 171.101562 180.023438 Z M 171.101562 180.023438 "
                  clip-rule="nonzero"/>
        </clipPath>
    </defs>
    <g clip-path="url(#cd96fb4810)">
        <g clip-path="url(#04eacaa898)">
            <g clip-path="url(#6cde852a2e)">
                <path fill="#32b4c8"
                      d="M 187.695312 139.5 L 234.484375 140.277344 L 234.269531 153.214844 L 187.480469 152.433594 Z M 187.695312 139.5 "
                      fill-opacity="1" fill-rule="nonzero"/>
            </g>
        </g>
    </g>
    <g clip-path="url(#c637f423d1)">
        <g clip-path="url(#fe15a3cf35)">
            <g clip-path="url(#f054b1738a)">
                <path fill="#32b4c8"
                      d="M 219.871094 186.972656 L 220.652344 140.027344 L 234.464844 140.257812 L 233.683594 187.203125 Z M 219.871094 186.972656 "
                      fill-opacity="1" fill-rule="nonzero"/>
            </g>
        </g>
    </g>
    <g clip-path="url(#17c02a3ed8)">
        <g clip-path="url(#cb920dd858)">
            <g clip-path="url(#f4102ba72e)">
                <path fill="#32b4c8"
                      d="M 187.082031 176.578125 L 220.023438 144.710938 L 229.714844 154.730469 L 196.769531 186.59375 Z M 187.082031 176.578125 "
                      fill-opacity="1" fill-rule="nonzero"/>
            </g>
        </g>
    </g>
    <g clip-path="url(#09521dc116)">
        <g clip-path="url(#e2797f95f4)">
            <g clip-path="url(#d4ecdf130f)">
                <path fill="#32b4c8"
                      d="M 141.65625 167.042969 L 208.996094 168.164062 L 207.875 235.5 L 140.539062 234.378906 Z M 141.65625 167.042969 "
                      fill-opacity="1" fill-rule="nonzero"/>
            </g>
        </g>
    </g>
    <g clip-path="url(#5112c03b50)">
        <g clip-path="url(#04cb41687b)">
            <g clip-path="url(#69f1bdc01b)">
                <path fill="#ffffff"
                      d="M 149.855469 183.6875 L 192.347656 176.359375 L 199.675781 218.851562 L 157.183594 226.179688 Z M 149.855469 183.6875 "
                      fill-opacity="1" fill-rule="nonzero"/>
            </g>
        </g>
    </g>
</svg>