<?xml version="1.0" encoding="utf-8"?>
<svg version="1.1" id="Ebene_1" xmlns="http://www.w3.org/2000/svg" x="0px" y="0px"
	 viewBox="0 7 32 18" style="enable-background:new 0 0 32 32;" xml:space="preserve">
<style type="text/css">
	.st0{fill:url(#SVGID_1_);}
	.st1{fill:#FFFFFF;}
</style>
<linearGradient id="SVGID_1_" gradientUnits="userSpaceOnUse" x1="1.0253" y1="16.0024" x2="30.7484" y2="16.0024">
	<stop  offset="2.064656e-07" style="stop-color:#0A558C"/>
	<stop  offset="1" style="stop-color:#32B4C8"/>
</linearGradient>
<path class="st0" d="M29.18,24H2.6c-0.87,0-1.57-0.7-1.57-1.57V9.57C1.03,8.7,1.73,8,2.6,8h26.58c0.87,0,1.57,0.7,1.57,1.57v12.86
	C30.75,23.3,30.04,24,29.18,24z"/>
<g>
	<path class="st1" d="M9.92,19.59c0,0.1-0.02,0.19-0.05,0.27s-0.08,0.15-0.14,0.2c-0.06,0.05-0.13,0.09-0.21,0.12
		s-0.17,0.04-0.25,0.04H8.5c-0.16,0-0.29-0.02-0.41-0.05s-0.22-0.09-0.31-0.17c-0.1-0.08-0.19-0.19-0.28-0.33s-0.19-0.32-0.3-0.55
		l-2.16-4.05c-0.13-0.24-0.25-0.5-0.38-0.78c-0.13-0.28-0.25-0.55-0.35-0.81H4.3c0.02,0.32,0.03,0.64,0.04,0.96s0.01,0.65,0.01,0.99
		v4.53c0,0.04-0.01,0.08-0.04,0.12c-0.02,0.04-0.07,0.07-0.13,0.09c-0.06,0.03-0.14,0.04-0.24,0.06c-0.1,0.01-0.23,0.02-0.4,0.02
		c-0.16,0-0.29-0.01-0.39-0.02c-0.1-0.01-0.18-0.03-0.24-0.06c-0.06-0.02-0.1-0.05-0.12-0.09c-0.02-0.04-0.03-0.08-0.03-0.12v-7.79
		c0-0.21,0.06-0.37,0.18-0.47c0.12-0.1,0.27-0.16,0.45-0.16h0.94c0.17,0,0.31,0.01,0.43,0.04C4.9,11.62,5,11.66,5.09,11.73
		c0.09,0.07,0.18,0.16,0.26,0.28c0.08,0.12,0.16,0.26,0.25,0.44l1.69,3.17c0.1,0.19,0.2,0.38,0.29,0.57
		c0.1,0.19,0.19,0.37,0.28,0.56c0.09,0.19,0.18,0.37,0.26,0.55c0.08,0.18,0.17,0.36,0.25,0.54h0.01c-0.01-0.31-0.02-0.64-0.03-0.98
		c-0.01-0.34-0.01-0.66-0.01-0.97V11.8c0-0.04,0.01-0.08,0.04-0.12c0.03-0.04,0.07-0.07,0.13-0.09c0.06-0.03,0.15-0.05,0.25-0.06
		c0.1-0.01,0.23-0.02,0.4-0.02c0.15,0,0.28,0.01,0.38,0.02s0.18,0.03,0.24,0.06c0.06,0.03,0.09,0.06,0.12,0.09
		c0.02,0.04,0.03,0.08,0.03,0.12V19.59z"/>
	<path class="st1" d="M16.94,19.52c0,0.13-0.01,0.24-0.02,0.32c-0.01,0.09-0.03,0.16-0.05,0.21c-0.02,0.05-0.05,0.09-0.08,0.12
		c-0.03,0.03-0.07,0.04-0.11,0.04h-4.35c-0.15,0-0.27-0.04-0.37-0.13c-0.1-0.09-0.15-0.23-0.15-0.43V12.1c0-0.2,0.05-0.34,0.15-0.43
		s0.22-0.13,0.37-0.13h4.33c0.04,0,0.08,0.01,0.11,0.03s0.06,0.06,0.08,0.12c0.02,0.06,0.04,0.13,0.05,0.21s0.02,0.2,0.02,0.33
		c0,0.12-0.01,0.23-0.02,0.32c-0.01,0.09-0.03,0.16-0.05,0.21c-0.02,0.05-0.05,0.09-0.08,0.12s-0.07,0.04-0.11,0.04h-3.09v2.12h2.62
		c0.04,0,0.08,0.01,0.11,0.04c0.03,0.02,0.06,0.06,0.08,0.11s0.04,0.12,0.05,0.21c0.01,0.09,0.02,0.19,0.02,0.32
		c0,0.13-0.01,0.24-0.02,0.32c-0.01,0.08-0.03,0.15-0.05,0.2s-0.05,0.09-0.08,0.11c-0.03,0.02-0.07,0.03-0.11,0.03h-2.62v2.44h3.12
		c0.04,0,0.08,0.01,0.11,0.04c0.03,0.03,0.06,0.06,0.08,0.12s0.04,0.12,0.05,0.21S16.94,19.39,16.94,19.52z"/>
	<path class="st1" d="M27.62,19.76c-0.03,0.11-0.06,0.19-0.11,0.26c-0.05,0.07-0.12,0.11-0.21,0.15c-0.09,0.03-0.21,0.05-0.36,0.07
		s-0.33,0.02-0.56,0.02c-0.25,0-0.46,0-0.61-0.02s-0.28-0.03-0.37-0.07c-0.09-0.03-0.15-0.08-0.19-0.15
		c-0.04-0.06-0.07-0.15-0.09-0.26l-1.39-5.49h-0.01l-1.31,5.49c-0.02,0.1-0.05,0.19-0.09,0.25s-0.1,0.12-0.19,0.15
		c-0.09,0.04-0.21,0.06-0.36,0.07s-0.35,0.02-0.59,0.02c-0.26,0-0.47,0-0.62-0.02c-0.15-0.01-0.28-0.03-0.37-0.07
		c-0.09-0.03-0.15-0.08-0.19-0.15c-0.04-0.06-0.07-0.15-0.1-0.26l-1.97-7.56c-0.04-0.16-0.06-0.29-0.07-0.38
		c0-0.09,0.02-0.16,0.08-0.21c0.06-0.05,0.15-0.08,0.27-0.09c0.13-0.01,0.3-0.02,0.53-0.02c0.21,0,0.38,0,0.5,0.01
		c0.12,0.01,0.22,0.02,0.28,0.05s0.1,0.06,0.13,0.11s0.04,0.11,0.05,0.2l1.52,6.64h0.01l1.58-6.59c0.02-0.08,0.04-0.15,0.07-0.21
		c0.03-0.05,0.08-0.09,0.15-0.12c0.07-0.03,0.16-0.05,0.28-0.06c0.12-0.01,0.28-0.02,0.48-0.02c0.21,0,0.38,0,0.51,0.01
		c0.13,0.01,0.23,0.03,0.29,0.06c0.07,0.03,0.12,0.07,0.15,0.12s0.06,0.12,0.07,0.21l1.63,6.59h0.01l1.52-6.62
		c0.01-0.07,0.03-0.13,0.05-0.18c0.02-0.05,0.06-0.09,0.13-0.12c0.06-0.03,0.15-0.05,0.27-0.06c0.12-0.01,0.28-0.02,0.49-0.02
		c0.2,0,0.35,0.01,0.46,0.02c0.11,0.01,0.19,0.04,0.24,0.09c0.05,0.05,0.07,0.12,0.06,0.22c-0.01,0.1-0.03,0.23-0.07,0.39
		L27.62,19.76z"/>
</g>
</svg>
