<?xml version="1.0" encoding="utf-8"?>
<svg version="1.1" id="Ebene_1" xmlns="http://www.w3.org/2000/svg" x="0px" y="0px"
	 viewBox="0 0 32 32" style="enable-background:new 0 0 32 32;" xml:space="preserve">
<style type="text/css">
	.st0{fill:url(#SVGID_1_);}
	.st1{fill:#FFFFFF;}
</style>
<linearGradient id="SVGID_1_" gradientUnits="userSpaceOnUse" x1="1.0253" y1="16.0024" x2="30.7484" y2="16.0024">
	<stop  offset="0" style="stop-color:#575756"/>
	<stop  offset="1" style="stop-color:#DADADA"/>
</linearGradient>
<path class="st0" d="M29.18,24H2.6c-0.87,0-1.57-0.7-1.57-1.57V9.57C1.03,8.7,1.73,8,2.6,8h26.58c0.87,0,1.57,0.7,1.57,1.57v12.86
	C30.75,23.3,30.04,24,29.18,24z"/>
<g>
	<path class="st1" d="M12.57,15.78c0,0.72-0.09,1.36-0.27,1.93c-0.18,0.57-0.44,1.05-0.8,1.44c-0.35,0.4-0.79,0.7-1.31,0.9
		c-0.52,0.21-1.12,0.31-1.81,0.31c-0.67,0-1.26-0.09-1.77-0.26c-0.5-0.18-0.92-0.45-1.26-0.81s-0.59-0.82-0.75-1.38
		c-0.17-0.56-0.25-1.22-0.25-1.98c0-0.7,0.09-1.33,0.27-1.89c0.18-0.56,0.44-1.04,0.8-1.43c0.35-0.39,0.79-0.69,1.31-0.9
		c0.52-0.21,1.12-0.31,1.81-0.31c0.66,0,1.24,0.09,1.74,0.26s0.92,0.44,1.26,0.8c0.34,0.36,0.59,0.82,0.76,1.37
		C12.48,14.38,12.57,15.03,12.57,15.78z M10.72,15.87c0-0.46-0.04-0.87-0.11-1.24c-0.07-0.37-0.19-0.69-0.37-0.96
		s-0.4-0.47-0.69-0.62s-0.64-0.22-1.07-0.22c-0.43,0-0.79,0.08-1.08,0.24c-0.29,0.16-0.52,0.38-0.7,0.65
		c-0.18,0.27-0.3,0.59-0.38,0.95c-0.07,0.36-0.11,0.75-0.11,1.16c0,0.47,0.04,0.9,0.11,1.28c0.07,0.38,0.19,0.7,0.36,0.97
		c0.17,0.27,0.4,0.47,0.68,0.61c0.29,0.14,0.65,0.21,1.08,0.21s0.79-0.08,1.08-0.24c0.29-0.16,0.52-0.38,0.7-0.66
		c0.18-0.28,0.3-0.6,0.38-0.97S10.72,16.29,10.72,15.87z"/>
	<path class="st1" d="M18.81,19.47c0,0.13-0.01,0.25-0.02,0.34c-0.01,0.09-0.03,0.17-0.05,0.23c-0.02,0.06-0.05,0.1-0.08,0.13
		c-0.03,0.03-0.07,0.04-0.12,0.04h-3.97c-0.15,0-0.27-0.04-0.37-0.13c-0.1-0.09-0.15-0.23-0.15-0.43v-7.87
		c0-0.04,0.01-0.08,0.04-0.12c0.03-0.04,0.08-0.06,0.14-0.09c0.07-0.02,0.16-0.04,0.27-0.05c0.11-0.01,0.26-0.02,0.43-0.02
		c0.17,0,0.32,0.01,0.43,0.02c0.11,0.01,0.2,0.03,0.27,0.05s0.11,0.05,0.14,0.09c0.03,0.04,0.04,0.08,0.04,0.12v6.97h2.73
		c0.04,0,0.08,0.01,0.12,0.04c0.03,0.02,0.06,0.06,0.08,0.12s0.04,0.13,0.05,0.22C18.8,19.23,18.81,19.34,18.81,19.47z"/>
	<path class="st1" d="M27.05,15.75c0,0.79-0.1,1.47-0.31,2.04c-0.21,0.57-0.51,1.03-0.89,1.38c-0.39,0.36-0.86,0.62-1.42,0.79
		c-0.55,0.17-1.22,0.25-1.98,0.25h-2.07c-0.15,0-0.27-0.04-0.37-0.13c-0.1-0.09-0.15-0.23-0.15-0.43V12.1c0-0.2,0.05-0.34,0.15-0.43
		c0.1-0.09,0.22-0.13,0.37-0.13h2.22c0.77,0,1.43,0.09,1.97,0.27s0.99,0.45,1.36,0.8c0.37,0.35,0.65,0.79,0.84,1.32
		C26.95,14.46,27.05,15.06,27.05,15.75z M25.23,15.81c0-0.41-0.05-0.79-0.14-1.15c-0.1-0.35-0.25-0.66-0.46-0.92
		c-0.21-0.26-0.48-0.46-0.82-0.61c-0.33-0.15-0.77-0.22-1.31-0.22H21.6v5.9h0.92c0.48,0,0.89-0.06,1.22-0.19
		c0.33-0.12,0.61-0.31,0.83-0.57c0.22-0.25,0.39-0.57,0.5-0.94S25.23,16.31,25.23,15.81z"/>
</g>
</svg>
