<svg xmlns="http://www.w3.org/2000/svg" width="200" zoomAndPan="magnify"
     viewBox="140 140 100 100" height="200" preserveAspectRatio="xMidYMid meet" version="1.0">
    <defs>
        <clipPath id="69c0188257">
            <path d="M 157 146 L 218 146 L 218 207 L 157 207 Z M 157 146 " clip-rule="nonzero"/>
        </clipPath>
        <clipPath id="f6d900665f">
            <path d="M 230.417969 177.234375 L 186.785156 219.441406 L 144.578125 175.808594 L 188.210938 133.601562 Z M 230.417969 177.234375 "
                  clip-rule="nonzero"/>
        </clipPath>
        <clipPath id="8d20296ccb">
            <path d="M 208.601562 198.335938 C 220.648438 186.683594 220.96875 167.46875 209.316406 155.417969 C 197.660156 143.371094 178.445312 143.050781 166.394531 154.703125 C 154.347656 166.359375 154.027344 185.574219 165.683594 197.625 C 177.335938 209.671875 196.550781 209.992188 208.601562 198.335938 Z M 208.601562 198.335938 "
                  clip-rule="nonzero"/>
        </clipPath>
        <clipPath id="f984186b80">
            <path d="M 168 157 L 207 157 L 207 196 L 168 196 Z M 168 157 " clip-rule="nonzero"/>
        </clipPath>
        <clipPath id="93b492e426">
            <path d="M 214.574219 171.847656 L 192.160156 203.601562 L 160.40625 181.191406 L 182.820312 149.433594 Z M 214.574219 171.847656 "
                  clip-rule="nonzero"/>
        </clipPath>
        <clipPath id="4ae39a215d">
            <path d="M 203.367188 187.726562 C 209.554688 178.957031 207.464844 166.832031 198.695312 160.640625 C 189.929688 154.453125 177.800781 156.542969 171.613281 165.3125 C 165.421875 174.082031 167.515625 186.207031 176.285156 192.394531 C 185.050781 198.585938 197.179688 196.492188 203.367188 187.726562 Z M 203.367188 187.726562 "
                  clip-rule="nonzero"/>
        </clipPath>
        <clipPath id="6a6bfee073">
            <path d="M 182 200 L 196 200 L 196 242 L 182 242 Z M 182 200 " clip-rule="nonzero"/>
        </clipPath>
        <clipPath id="1157785189">
            <path d="M 195.378906 200.109375 L 194.691406 241.417969 L 182.132812 241.207031 L 182.820312 199.898438 Z M 195.378906 200.109375 "
                  clip-rule="nonzero"/>
        </clipPath>
        <clipPath id="de8f2319a9">
            <path d="M 195.273438 206.386719 L 194.796875 235.117188 C 194.769531 236.78125 194.082031 238.367188 192.882812 239.527344 C 191.6875 240.683594 190.078125 241.320312 188.414062 241.292969 C 186.746094 241.261719 185.160156 240.574219 184.003906 239.378906 C 182.84375 238.179688 182.210938 236.574219 182.238281 234.90625 L 182.714844 206.179688 C 182.742188 204.511719 183.429688 202.925781 184.628906 201.769531 C 185.824219 200.609375 187.433594 199.976562 189.097656 200.003906 C 190.765625 200.03125 192.351562 200.71875 193.507812 201.917969 C 194.667969 203.113281 195.300781 204.722656 195.273438 206.386719 Z M 195.273438 206.386719 "
                  clip-rule="nonzero"/>
        </clipPath>
        <clipPath id="304caf71cd">
            <path d="M 166.34375 213.214844 L 208.664062 213.214844 L 208.664062 225.667969 L 166.34375 225.667969 Z M 166.34375 213.214844 "
                  clip-rule="nonzero"/>
        </clipPath>
        <clipPath id="ce14d53214">
            <path d="M 172.570312 213.214844 L 202.429688 213.214844 C 205.867188 213.214844 208.65625 216 208.65625 219.441406 C 208.65625 222.878906 205.867188 225.667969 202.429688 225.667969 L 172.570312 225.667969 C 169.132812 225.667969 166.34375 222.878906 166.34375 219.441406 C 166.34375 216 169.132812 213.214844 172.570312 213.214844 Z M 172.570312 213.214844 "
                  clip-rule="nonzero"/>
        </clipPath>
    </defs>
    <g clip-path="url(#69c0188257)">
        <g clip-path="url(#f6d900665f)">
            <g clip-path="url(#8d20296ccb)">
                <path fill="#c30532"
                      d="M 230.417969 177.234375 L 186.785156 219.441406 L 144.578125 175.808594 L 188.210938 133.601562 Z M 230.417969 177.234375 "
                      fill-opacity="1" fill-rule="nonzero"/>
            </g>
        </g>
    </g>
    <g clip-path="url(#f984186b80)">
        <g clip-path="url(#93b492e426)">
            <g clip-path="url(#4ae39a215d)">
                <path fill="#ffffff"
                      d="M 214.574219 171.847656 L 192.160156 203.601562 L 160.40625 181.191406 L 182.820312 149.433594 Z M 214.574219 171.847656 "
                      fill-opacity="1" fill-rule="nonzero"/>
            </g>
        </g>
    </g>
    <g clip-path="url(#6a6bfee073)">
        <g clip-path="url(#1157785189)">
            <g clip-path="url(#de8f2319a9)">
                <path fill="#c30532"
                      d="M 195.378906 200.109375 L 194.691406 241.417969 L 182.132812 241.207031 L 182.820312 199.898438 Z M 195.378906 200.109375 "
                      fill-opacity="1" fill-rule="nonzero"/>
            </g>
        </g>
    </g>
    <g clip-path="url(#304caf71cd)">
        <g clip-path="url(#ce14d53214)">
            <path fill="#c30532"
                  d="M 166.34375 213.214844 L 208.664062 213.214844 L 208.664062 225.667969 L 166.34375 225.667969 Z M 166.34375 213.214844 "
                  fill-opacity="1" fill-rule="nonzero"/>
        </g>
    </g>
</svg>