<?xml version="1.0" encoding="UTF-8"?>
<svg width="296px" height="114px" viewBox="0 0 296 114" version="1.1" xmlns="http://www.w3.org/2000/svg">
    <title>logo_hsb_startseite (1)</title>
    <g id="formular" stroke="none" stroke-width="1" fill="none" fill-rule="evenodd">
        <g id="logo_hsb_startseite-(1)" fill="#FFFFFF" fill-rule="nonzero">
            <polygon id="Path" points="16.41 11.62 27.46 0.57 38.51 11.62 27.46 22.67"></polygon>
            <polygon id="Path" points="32.25 27.46 43.3 16.41 54.35 27.46 43.3 38.51"></polygon>
            <polygon id="Path" points="0.56 27.46 11.61 16.41 38.51 43.31 27.46 54.36"></polygon>
            <polygon id="Path" points="59.15 86.05 43.3 101.9 32.25 90.85 48.1 75 32.25 59.16 43.3 48.11 59.15 63.95 75 48.11 86.05 59.16 70.2 75 86.05 90.85 75 101.9"></polygon>
            <polygon id="Path" points="139.82 28.19 149.31 28.19 149.31 77.16 139.82 77.16 139.82 55.71 120.21 55.71 120.21 77.16 110.65 77.16 110.65 28.19 120.21 28.19 120.21 47.89 139.82 47.89"></polygon>
            <path d="M191.12,34.55 L191.12,34.55 C191.12,34.55 191.12,34.55 191.12,34.55 C191.15,34.6 191.08,34.5 191.12,34.55 L191.12,34.55 Z" id="Path"></path>
            <path d="M179.71,49.48 L173.48,47.6 C169.86,46.44 168.41,44.63 168.41,41.73 C168.41,38.18 170.87,35.57 175.36,35.57 C179.8,35.57 182.83,37.27 184.65,39.91 C184.67,39.94 185.07,40.55 185.09,40.57 L191.11,34.55 C188.48,30.84 183.71,27.46 175.36,27.46 C163.33,27.46 158.55,34.7 158.55,42.31 C158.55,48.39 161.59,53.18 170.14,55.86 L176.3,57.74 C179.99,58.9 181.81,60.64 181.81,63.68 C181.81,67.37 179.06,69.84 174.06,69.84 C169.25,69.84 166.59,68.36 164.8,66.26 L164.8,66.26 C164.8,66.26 164.77,66.23 164.73,66.17 C164.61,66.03 164.5,65.89 164.4,65.75 C163.97,65.19 163.25,64.24 162.51,63.17 L156.6,69.09 C158.66,72.92 163.38,77.96 174.07,77.96 C184.28,77.96 191.67,72.45 191.67,62.96 C191.66,56.73 188.47,52.24 179.71,49.48 L179.71,49.48 Z" id="Path"></path>
            <path d="M216.77,69.33 C223.22,69.33 225.61,67.01 225.61,62.59 C225.61,58.46 223.29,55.78 216.77,55.78 L209.45,55.78 L209.45,69.33 L216.77,69.33 L216.77,69.33 Z M215.68,47.96 C221.26,47.96 223.14,45.64 223.14,41.88 C223.14,38.33 221.26,36.01 215.61,36.01 L209.45,36.01 L209.45,47.96 L215.68,47.96 L215.68,47.96 Z M199.89,28.19 L216.84,28.19 C228.5,28.19 232.99,33.41 232.99,41.08 C232.99,46.51 230.31,49.84 226.04,51.29 C230.97,52.45 235.53,56.29 235.53,63.24 C235.53,73.53 228.29,77.15 217.06,77.15 L199.89,77.15 L199.89,28.19 L199.89,28.19 Z" id="Shape"></path>
      </g>
    </g>
</svg>